<svg width="22" height="22" viewBox="0 0 22 22" fill="none" xmlns="http://www.w3.org/2000/svg">
<path d="M5 5L9.5 9.5M5 5H2L1 2L2 1L5 2V5ZM18.259 1.74101L15.6314 4.36863C15.2354 4.76465 15.0373 4.96265 14.9632 5.19098C14.8979 5.39183 14.8979 5.60817 14.9632 5.80902C15.0373 6.03735 15.2354 6.23535 15.6314 6.63137L15.8686 6.86863C16.2646 7.26465 16.4627 7.46265 16.691 7.53684C16.8918 7.6021 17.1082 7.6021 17.309 7.53684C17.5373 7.46265 17.7354 7.26465 18.1314 6.86863L20.5893 4.41072C20.854 5.05488 21 5.76039 21 6.5C21 9.53757 18.5376 12 15.5 12C15.1338 12 14.7759 11.9642 14.4298 11.8959C13.9436 11.8001 13.7005 11.7521 13.5532 11.7668C13.3965 11.7824 13.3193 11.8059 13.1805 11.8802C13.0499 11.9501 12.919 12.081 12.657 12.343L5.5 19.5C4.67157 20.3284 3.32843 20.3284 2.5 19.5C1.67157 18.6716 1.67157 17.3284 2.5 16.5L9.65703 9.34297C9.91897 9.08103 10.0499 8.95005 10.1198 8.81949C10.1941 8.68068 10.2176 8.60347 10.2332 8.44681C10.2479 8.29945 10.1999 8.05638 10.1041 7.57024C10.0358 7.22406 10 6.86621 10 6.5C10 3.46243 12.4624 1 15.5 1C16.5055 1 17.448 1.26982 18.259 1.74101ZM11.0001 13.9999L16.5 19.4999C17.3284 20.3283 18.6716 20.3283 19.5 19.4999C20.3284 18.6715 20.3284 17.3283 19.5 16.4999L14.9753 11.9753C14.655 11.945 14.3427 11.8872 14.0408 11.8043C13.6517 11.6975 13.2249 11.7751 12.9397 12.0603L11.0001 13.9999Z" stroke="#190842" stroke-width="2" stroke-linecap="round" stroke-linejoin="round"/>
</svg>
